<?xml version="1.0" standalone="no"?>
<!DOCTYPE svg PUBLIC "-//W3C//DTD SVG 1.1//EN" "http://www.w3.org/Graphics/SVG/1.1/DTD/svg11.dtd" >
<svg xmlns="http://www.w3.org/2000/svg" xmlns:xlink="http://www.w3.org/1999/xlink" version="1.1">
<metadata></metadata>
<defs>
<font id="aaarghnormal" horiz-adv-x="1288" >
<font-face units-per-em="2048" ascent="1638" descent="-410" />
<missing-glyph horiz-adv-x="956" />
<glyph horiz-adv-x="0" />
<glyph unicode="&#xd;" horiz-adv-x="956" />
<glyph unicode=" "  horiz-adv-x="956" />
<glyph unicode="&#x09;" horiz-adv-x="956" />
<glyph unicode="&#xa0;" horiz-adv-x="956" />
<glyph unicode="!" horiz-adv-x="536" d="M225 1638v-1333h103v1333h-103zM203 123h143v-123h-143v123z" />
<glyph unicode="&#x22;" horiz-adv-x="526" d="M113 1638v-227h106l17 227h-123zM297 1638v-227h106l17 227h-123z" />
<glyph unicode="#" horiz-adv-x="1331" d="M1169 874v103h-241l157 657h-104l-158 -657h-241l157 657h-104l-158 -657h-307v-103h283l-43 -176h-240v-102h215l-143 -602h104l146 602h241l-145 -602h106l144 602h331v102h-307l43 176h264zM758 698h-242l41 176h242z" />
<glyph unicode="$" horiz-adv-x="1046" d="M852 621q-70 76 -283 237v705q174 -20 301 -131v106q-137 102 -301 117v98h-100v-98q-295 -27 -358 -330q-8 -39 -9 -78q0 -145 121 -266q27 -27 101 -76q100 -66 145 -100v-727q-184 16 -375 143v-110q156 -123 375 -129v-109h100v113q315 39 367 319q10 57 10 101 q0 115 -94 215zM209 1241q0 23 8 64q47 231 252 258v-631q-123 94 -164 133q-96 94 -96 176zM834 342q-53 -238 -265 -264v651q143 -113 199 -178q72 -84 72 -162q0 -18 -6 -47z" />
<glyph unicode="%" horiz-adv-x="1253" d="M350 1630q-88 0 -150.5 -62.5t-62.5 -150.5q0 -90 62.5 -152.5t150.5 -62.5t150.5 62.5t62.5 152.5q0 88 -62.5 150.5t-150.5 62.5zM350 1292q-51 0 -88 36t-37 89q0 51 37 87t88 36t88 -36t37 -87q0 -53 -37 -89t-88 -36zM922 401q-90 0 -152.5 -62.5t-62.5 -152.5 q0 -88 62 -150.5t153 -62.5q88 0 150.5 62.5t62.5 150.5q0 90 -62.5 152.5t-150.5 62.5zM922 63q-53 0 -89 36t-36 87q0 53 35.5 89t89.5 36q51 0 86.5 -35.5t35.5 -89.5q0 -51 -35.5 -87t-86.5 -36zM360 -2l680 1663h-110l-682 -1663h112z" />
<glyph unicode="&#x26;" horiz-adv-x="1488" d="M1151 272l14 21q178 256 197 549h-102q-23 -201 -70 -320q-25 -61 -80 -139l-23 -33l-458 500l33 18q180 94 249 164q115 115 115 289q0 143 -96 244q-109 111 -287 110q-186 0 -305 -125q-106 -111 -107 -241q0 -106 52 -193q41 -70 172 -209l28 -28l-37 -19 q-186 -88 -270 -193.5t-84 -250.5q0 -158 103 -283q135 -166 399 -166q164 0 285 62q74 37 196 143l25 23l180 -193h127zM328 1303q0 129 87 208.5t222 79.5q150 0 227 -88q66 -74 66 -192q0 -137 -86 -224q-70 -70 -254 -155l-21 -8l-28 30q-104 115 -138 160 q-75 105 -75 189zM1012 242q-80 -82 -138 -117q-123 -76 -272 -76q-256 0 -360 176q-53 90 -54 187q0 129 80 215q74 80 256 159l21 9l487 -533z" />
<glyph unicode="'" horiz-adv-x="444" d="M160 1638v-227h106l17 227h-123z" />
<glyph unicode="(" horiz-adv-x="692" d="M532 -72l-98 -32q-233 367 -250 1040q6 197 33 373q66 422 227 669l88 -36q-227 -330 -241 -1006q6 -199 31 -371q60 -416 210 -637z" />
<glyph unicode=")" horiz-adv-x="692" d="M184 -72l99 -32q233 367 249 1040q-6 197 -32 373q-66 422 -228 669l-88 -36q227 -330 242 -1006q-6 -199 -31 -371q-61 -416 -211 -637z" />
<glyph unicode="*" horiz-adv-x="645" d="M539 1425l-31 95l-135 -43v147h-101v-139l-127 41l-30 -96l127 -41l-82 -113l80 -59l84 114l82 -112l81 57l-77 106z" />
<glyph unicode="+" horiz-adv-x="940" d="M827 596h-721v100h721v-100zM518 1008v-721h-102v721h102z" />
<glyph unicode="," horiz-adv-x="430" d="M285 0l-103 2v-2h103zM141 143h144v-143v0q-2 -133 -152 -213l-37 84q86 47 86 129h-41v143z" />
<glyph unicode="-" horiz-adv-x="772" d="M659 596h-536v100h536v-100z" />
<glyph unicode="." horiz-adv-x="536" d="M195 143h143v-143h-143v143z" />
<glyph unicode="/" horiz-adv-x="878" d="M262 -6l451 1878h-105l-450 -1878h104z" />
<glyph unicode="0" horiz-adv-x="1318" d="M649 1210q-217 0 -381 -182t-164 -436q0 -287 149.5 -453t395.5 -166q256 0 400.5 163t144.5 456q0 254 -164 436t-381 182zM651 76q-199 0 -317 135q-125 141 -125 381q0 211 134 363.5t308 152.5t307.5 -152.5t133.5 -363.5q0 -236 -123 -376t-318 -140z" />
<glyph unicode="1" horiz-adv-x="745" d="M459 0v1186h-105l-272 -189q33 -37 65 -77q2 2 207 145v-1065h105z" />
<glyph unicode="2" horiz-adv-x="1007" d="M242 895q12 113 90 178q68 55 162 55q92 0 163 -53q88 -66 88 -182q0 -147 -208 -365l-424 -442v-86h745v90q-39 10 -475 0l-150 -4l357 369q152 156 211 264q49 86 49 174q0 139 -97.5 228t-252.5 89q-193 0 -287 -114q-53 -63 -84 -189q54 -6 113 -12z" />
<glyph unicode="3" horiz-adv-x="1007" d="M860 266q0 258 -225 350h-2v9v0q199 84 198 280q0 100 -40 170q-80 129 -287 129q-291 0 -381 -239q4 -2 100 -39q63 182 283 182q217 0 217 -209q0 -162 -137 -207q-49 -14 -133 -14h-60v-111l15 2l63 -2q137 -2 213 -94q72 -84 76 -223q-6 -143 -25 -211 q-20 -78 -73 -131q-111 -113 -314 -113q-98 0 -254 25l-18 -101q156 -25 254 -24q244 0 383 119q147 122 147 452z" />
<glyph unicode="4" horiz-adv-x="1044" d="M967 184h-172v1002h-160q0 -2 -565 -973v-111h624v-346h101v346h172v82zM692 1020v-834h-536l516 873q6 18 20 49h4q-4 -61 -4 -88z" />
<glyph unicode="5" horiz-adv-x="915" d="M815 266q0 268 -215 371q-70 35 -192 41q-61 2 -172 2q0 10 2 33l8 389h508v86h-600l-17 -617h19l270 -4q139 -2 215 -92q68 -84 72 -225q-4 -143 -23 -211q-20 -78 -74 -131q-111 -113 -313 -113q-98 0 -254 25l-18 -101q156 -25 254 -24q242 0 386 120.5t144 450.5z " />
<glyph unicode="6" horiz-adv-x="1091" d="M575 1004q-207 10 -352 -168l2 30q18 236 135 365q129 141 357 129q98 -4 252 -37l22 98q-154 33 -252 39q-250 12 -389 -98q-205 -164 -227 -490l-17 -307q0 -14 -4 -43q-10 -229 103.5 -372.5t316.5 -153.5q209 -10 334 117t137 362q10 205 -114 362t-304 167zM887 481 q-8 -178 -107.5 -282.5t-251.5 -96.5q-154 8 -239.5 121t-77.5 293q8 160 115.5 273.5t242.5 107.5q135 -8 230.5 -132t87.5 -284z" />
<glyph unicode="7" horiz-adv-x="1001" d="M78 1188v-98h731l-680 -1369h113l682 1369v0v98h-846z" />
<glyph unicode="8" horiz-adv-x="1075" d="M725 850q111 88 121 274q6 141 -81 250t-212 117v0q-117 6 -211 -80q-113 -100 -119 -254q-12 -215 129 -313q-94 -57 -152.5 -158.5t-64.5 -222.5q-12 -209 92.5 -339t288.5 -140q178 -10 289 92q129 115 141 344q6 131 -52 249t-169 181zM332 1151q6 96 70.5 164.5 t144.5 64.5q82 -4 138 -79.5t52 -172.5q-6 -88 -47 -149q-47 -68 -129 -78q-23 0 -45 -2q-88 6 -138 74.5t-46 177.5zM831 426q-8 -170 -108 -260q-82 -74 -201 -68q-141 6 -213 115q-68 96 -59 244q8 156 121 256q86 78 188 73q117 -6 198.5 -114.5t73.5 -245.5z" />
<glyph unicode="9" horiz-adv-x="1075" d="M979 655v7q10 205 -114 360.5t-304 165.5t-320.5 -132.5t-150.5 -346.5q-12 -229 101.5 -372.5t316.5 -156.5q229 -10 356 142l-2 -5q-16 -236 -135 -364q-129 -141 -356 -129q-98 4 -250 37l-25 -99q154 -33 252 -38q250 -12 389 98q205 164 228 489q6 90 16 316 q0 16 -2 28zM514 287q-154 8 -240 120.5t-77 294.5q8 158 116.5 273t243.5 106q133 -6 228.5 -131t86.5 -282q-8 -178 -107 -283.5t-251 -97.5z" />
<glyph unicode=":" horiz-adv-x="536" d="M203 143h143v-143h-143v143zM203 1184h143v-144h-143v144z" />
<glyph unicode=";" horiz-adv-x="536" d="M182 1184h144v-144h-144v144zM326 0l-103 2v-2h103zM182 143h144v-143v0q-2 -133 -152 -213l-37 84q86 47 86 129h-41v143z" />
<glyph unicode="&#x3c;" horiz-adv-x="1054" d="M877 1638h-127l-584 -823v0v0v0l579 -815h125l-579 815z" />
<glyph unicode="=" horiz-adv-x="940" d="M825 717h-721v100h721v-100zM825 440h-721v101h721v-101z" />
<glyph unicode="&#x3e;" horiz-adv-x="1054" d="M166 1638h125l586 -823v0v0v0l-582 -815h-125l580 815z" />
<glyph unicode="?" horiz-adv-x="944" d="M358 143h144v-143h-144v143zM436 1636q-315 0 -395 -252q35 -10 92 -30q43 104 98 143q66 47 199 47q152 0 229 -82q66 -74 66 -192q0 -109 -45 -183q-29 -45 -135 -159l-2 -4q-115 -123 -140 -166q-31 -51 -30 -131v-316h100v283q0 94 29 141q23 37 131 150 q104 104 141 170q49 86 49 207q0 190 -125 290q-102 84 -262 84z" />
<glyph unicode="@" horiz-adv-x="1679" d="M1505 446q63 164 64 359q0 348 -197 594q-211 266 -549 266q-334 0 -532 -270q-178 -244 -178 -590q0 -344 178 -586q199 -266 532 -266q301 0 512 221l-104 41q-168 -168 -408 -168q-293 0 -458 242q-147 213 -148 518q0 303 148 516q166 242 458 242q293 0 475 -240 q166 -217 166 -518q0 -147 -39 -272h-315v645l-20 2q-90 10 -240 16q-152 8 -257.5 -88t-129.5 -250q-6 -39 -6 -74q0 -147 82 -251q88 -113 231 -113q131 0 231 100v-78v0v0h504v0v0v2zM1001 797q0 -106 -65 -185q-68 -84 -170 -84q-98 0 -162 111q-35 59 -35 145 q0 162 97 246q74 68 170 62q39 -2 165 -11v-129q0 -145 3 -164z" />
<glyph unicode="A" horiz-adv-x="1355" d="M1204 0h109l-590 1634h-107l-575 -1634h109l204 580h641zM389 682l281 799l288 -799h-569z" />
<glyph unicode="B" horiz-adv-x="1230" d="M1139 510q-6 156 -111 264q-90 92 -229 135q209 100 194 389q-6 160 -155 261q-127 86 -283 92q-59 2 -117 2q-180 0 -293 -17h-2v0v0v-1636h2v0q215 -33 424 -29q348 10 480 174q100 125 90 365zM504 1561q139 -4 252 -72q133 -78 139 -199q18 -348 -432 -348h-217v617 q121 6 258 2zM530 76q-119 -2 -284 12v752h366q154 0 279 -82q145 -96 153 -254q8 -193 -81 -289q-120 -131 -433 -139z" />
<glyph unicode="C" horiz-adv-x="1236" d="M807 1556q109 0 315 -20v102q-193 16 -293 17q-283 0 -432 -109q-131 -98 -188 -200q-94 -166 -107 -461h-2v-72v-33v-37h2q12 -295 107 -460q57 -104 188 -201q150 -111 432 -111q100 0 293 19v102q-207 -20 -315 -20q-213 0 -331 89t-167 175q-84 147 -102 426v52v50 q18 281 102 428q47 84 166 174t332 90z" />
<glyph unicode="D" horiz-adv-x="1374" d="M1262 889q-12 293 -115 459q-63 104 -201 198q-160 109 -457 109q-35 0 -141 -7.5t-153 -7.5h-31v-1640h2v0q190 -16 323 -16q291 0 457 108q131 86 201 203q100 172 115 455q2 47 2 69q0 23 -2 70zM1157 768q-18 -279 -110 -428q-55 -90 -177 -170q-135 -88 -358 -88 q-80 0 -246 10v551v0v0v901q166 12 246 12q233 0 360 -88q121 -82 177 -172q90 -150 108 -426v-51v-51z" />
<glyph unicode="E" horiz-adv-x="1089" d="M266 1532h719v102h-719v0h-102v-1634h819v100l-717 -2v543v0v0v199h719v102h-719v590z" />
<glyph unicode="F" horiz-adv-x="1085" d="M266 1532h719v102h-719v0h-102v-1634h102v641v0v0v199h719v102h-719v590z" />
<glyph unicode="G" horiz-adv-x="1409" d="M1260 834h-521v-103h414v-639q-168 -10 -313 -10q-217 0 -338 89t-170 173q-86 145 -105 424q-2 8 -2 49t2 51q18 276 105 422q49 86 170 174t338 88q111 0 323 -18v100q-197 16 -299 17q-291 0 -442 -109q-133 -96 -195 -199q-94 -164 -108 -456h-2v-70v-33v-36h2 q14 -293 108 -457q61 -102 195 -199q152 -109 442 -108q197 0 326 8l70 6v733v0v103z" />
<glyph unicode="H" horiz-adv-x="1376" d="M1102 1632v-690h-826v690h-102v-1632h102v840h826v-840h100v1632h-100z" />
<glyph unicode="I" horiz-adv-x="536" d="M225 1638v-1640h103v1640h-103z" />
<glyph unicode="J" horiz-adv-x="577" d="M-39 -246q158 12 250 90q80 72 113 207q27 115 28 324v1261h-104q4 -227 0 -1255q-2 -365 -121 -467q-66 -57 -166 -66v-94z" />
<glyph unicode="K" horiz-adv-x="1323" d="M389 893l836 741h-154l-780 -692v692h-103v-1634h103v838q424 -385 839 -838h136q-431 483 -877 893z" />
<glyph unicode="L" horiz-adv-x="1105" d="M309 102v539v0v0v995h-102v-1634h823v100h-721z" />
<glyph unicode="M" horiz-adv-x="1679" d="M1364 1638v0v0v0l-522 -1038l-535 1038v0v0h-102v0v0v-1636h102v1417l537 -1081l520 1075v-1411h100v1636h-100z" />
<glyph unicode="N" horiz-adv-x="1531" d="M1219 1640v-1445l-895 1445v0v0h-103v-1638h103v1444l893 -1444h2v0h100l2 1638h-102z" />
<glyph unicode="O" horiz-adv-x="1646" d="M807 1655q-309 0 -504 -246q-190 -238 -190 -594q0 -354 190 -592q195 -246 504 -246q313 0 524 246q205 242 205 592q0 352 -205 594q-211 246 -524 246zM807 74q-268 0 -434 217q-158 209 -158 524q0 317 158 524q166 217 434 217q270 0 448.5 -215t178.5 -526 q0 -309 -178.5 -525t-448.5 -216z" />
<glyph unicode="P" horiz-adv-x="1343" d="M1219 1155q-2 8 -2 33q-6 133 -62 223q-39 66 -129 139q-162 133 -408 115q-72 0 -401 -27v-1644h102v586q197 -16 299 -17q217 0 388 129q188 145 211 375q0 16 2 45v43zM1112 1106q-2 -23 -6 -53q-27 -172 -158 -277q-152 -125 -307 -114q-57 0 -322 20v322v0v16 q-2 29 0 57v15v0v454q193 20 322 21q188 12 330 -103q129 -106 141 -290q2 -19 0 -68z" />
<glyph unicode="Q" horiz-adv-x="1675" d="M1591 -403q-152 -25 -250 -25q-145 0 -255.5 68.5t-159.5 197.5q-23 61 -35 137q287 31 472 269.5t185 568.5q0 352 -209 596t-522 244q-311 0 -508 -246q-190 -238 -190 -594q0 -350 182 -586q188 -244 487 -256q35 -248 191 -385q96 -84 262 -108q53 -8 117 -8 q100 0 252 24zM221 813q0 315 160 524q166 219 434 219q270 0 449.5 -216t179.5 -527q0 -313 -179.5 -528t-449.5 -215q-268 0 -434 217q-160 209 -160 526z" />
<glyph unicode="R" horiz-adv-x="1404" d="M639 692q240 23 359.5 132.5t140.5 338.5v4v2v0q-2 215 -109 330q-137 145 -461 156q-133 4 -346 -23v0v0v-1632h103v700q102 -10 163 -12q340 -319 674 -682h135q-325 362 -659 686zM326 1542q115 10 204 8q293 -8 410 -123q90 -86 90 -258v0q-4 -223 -168 -309 q-123 -68 -370 -67q-14 2 -29 0q-61 2 -137 8v741z" />
<glyph unicode="S" horiz-adv-x="1146" d="M844 59q121 74 151 246q10 59 11 103q0 113 -95 215q-82 88 -354 290q-172 127 -231.5 195t-59.5 137q0 27 8 64q29 145 134 215q70 47 167 47q49 0 107 -12q137 -27 248 -123v106q-111 82 -232 107q-63 12 -123 12q-141 0 -243 -68q-127 -86 -164 -264q-8 -39 -8 -76 q0 -141 125 -262q31 -29 260 -196q182 -133 239 -191q113 -113 113 -217q0 -23 -4 -45q-57 -268 -320 -268q-47 0 -98 10q-170 35 -323 137v-110q109 -86 284 -121q55 -10 113 -10q168 -1 295 79z" />
<glyph unicode="T" horiz-adv-x="1142" d="M1049 1636h-955v-102h426v-1534h103v1534h426v102z" />
<glyph unicode="U" horiz-adv-x="1437" d="M1241 1630h-115v-1073q0 -219 -75 -332q-98 -141 -334 -141t-334 141q-78 113 -78 332v1073h-115v-1083q0 -571 527 -572q524 0 524 572v1083z" />
<glyph unicode="V" horiz-adv-x="1470" d="M692 -2h109l573 1632h-108l-521 -1478l-532 1478h-109z" />
<glyph unicode="W" horiz-adv-x="2166" d="M1952 1636l-408 -1439l-407 1439v0h-111v0l-408 -1439l-407 1439h-111l463 -1634v0h111l407 1438l406 -1438h2h110l463 1634h-110z" />
<glyph unicode="X" horiz-adv-x="1372" d="M1251 1636h-121l-456 -733l-459 733h-121l518 -831l-501 -803h120l443 707l442 -707h121l-504 803z" />
<glyph unicode="Y" horiz-adv-x="1298" d="M707 805v0l520 831h-121l-459 -733l-459 733h-120l528 -839v-795h102v789z" />
<glyph unicode="Z" horiz-adv-x="1257" d="M1102 1636h-2h2h-115v0h-817v-102h766l-756 -1532h58v-2h864v102h-758z" />
<glyph unicode="[" horiz-adv-x="901" d="M705 1878v102h-328v0h-105v-2611h2v0h431v103h-328v2406h328z" />
<glyph unicode="\" horiz-adv-x="878" d="M608 -6l-450 1878h104l451 -1878h-105z" />
<glyph unicode="]" horiz-adv-x="901" d="M272 1878v102h330v0h103v-2611v0v0h-433v103h330v2406h-330z" />
<glyph unicode="^" horiz-adv-x="757" d="M659 1438l-288 192v0v0l-287 -192l55 -84l232 155l233 -155z" />
<glyph unicode="_" horiz-adv-x="1314" d="M1219 0h-1121v102h1121v-102z" />
<glyph unicode="`" horiz-adv-x="638" d="M129 1509l330 -163l45 88l-330 163z" />
<glyph unicode="a" horiz-adv-x="1273" d="M729 1202q-233 16 -399 -131q-178 -156 -219 -409q-10 -61 -11 -121q0 -229 129 -400q141 -184 363 -184q182 0 326 125q70 61 110 123v-72v0v0v-133h102v1174q-239 26 -401 28zM1028 557q-2 -240 -162 -381q-133 -115 -282 -115q-188 0 -312 207q-66 113 -65 269 q0 125 45 245q49 133 133 207q143 127 322 115q57 0 321 -21v-526z" />
<glyph unicode="b" horiz-adv-x="1232" d="M1143 631v31q-8 209 -119 350q-115 150 -311 180q-70 10 -168 10q-102 0 -299 -18v690h-103v-1876v0v0q240 -27 402 -29q221 -14 387 131q182 158 209 443q2 14 2 43q2 29 0 45zM1038 582q-2 -25 -6 -56q-39 -242 -158 -344q-141 -125 -307 -114q-57 0 -321 20v455v0v14 v57v15v0v454q193 18 321 21q205 14 330 -103.5t141 -351.5v-67z" />
<glyph unicode="c" horiz-adv-x="1120" d="M1055 133q-133 -37 -170 -45q-100 -27 -226 -20q-176 0 -307 114q-117 102 -155 344q-6 31 -7 56q-2 49 0 67q14 233 142 352q109 102 327 103q106 0 312 -21v103q-188 16 -289 16q-274 0 -408 -117q-178 -156 -188 -423q0 -8 -2 -31v-45q0 -12 2 -43q29 -285 211 -443 q150 -133 385 -131q51 2 109 8q133 16 266 56q0 -6 -2 24v76z" />
<glyph unicode="d" horiz-adv-x="1261" d="M1008 1874v-690q-197 18 -301 18q-250 0 -400 -131q-178 -156 -219 -409q-10 -61 -10 -121q0 -229 129 -400q141 -184 362 -184q182 0 326 125q70 61 113 123v-72v0v0v-133h100v1874h-100zM1008 557q-2 -240 -164 -381q-133 -115 -281 -115q-190 0 -311 207 q-68 113 -68 269q0 125 45 245q49 133 136 207q143 127 319 115q57 0 324 -21q4 -55 0 -526z" />
<glyph unicode="e" horiz-adv-x="1212" d="M1110 592q8 215 -98 385q-119 188 -320 221q-37 6 -71 6q-182 0 -326 -127q-190 -166 -211 -420q-2 -12 -2 -26v-45v-43q35 -289 209 -443q152 -133 387 -131q51 2 106 8q135 16 267 56q0 -6 0 24.5v75.5q-133 -37 -170 -45q-100 -27 -226 -20q-176 0 -307 114 q-117 102 -155 344q-6 31 -7 56v10h924zM627 1100q190 0 311 -209q51 -84 63 -197h-811q27 176 158.5 291t278.5 115z" />
<glyph unicode="f" horiz-adv-x="761" d="M500 1729q66 55 164 63v92q-156 -12 -244 -90q-76 -68 -107 -199q-25 -104 -30 -313v-96h-172v-103h172v-1085h102v1085h266v103h-266v90q11 359 115 453z" />
<glyph unicode="g" horiz-adv-x="1318" d="M735 1208q-233 16 -401 -131q-180 -156 -221 -411q-8 -61 -9 -121q0 -231 129 -402q141 -184 365 -184q182 0 326 125q70 61 112 123v-72v0v0v-149v-66q-6 -285 -149 -409q-127 -111 -312 -111q-100 0 -253 25l-19 -101q154 -25 254 -24q63 0 117 6q168 25 264 110 q197 172 201 500q2 145 0 317v949q-240 24 -404 26zM1036 561q-2 -240 -164 -383q-133 -117 -282 -117q-190 0 -314 211q-66 113 -65 269q0 125 45 247q49 131 135 207q143 125 322 115q57 0 323 -18q4 -58 0 -531z" />
<glyph unicode="h" horiz-adv-x="1357" d="M1153 995q-57 102 -134 150.5t-212 68.5q-37 6 -72 7q-129 0 -250 -70q-111 -66 -188 -178v911h-102v-1886h102v649q0 211 164 352q133 117 280 117q25 0 47 -2q111 -18 167.5 -56t105.5 -120q61 -102 61 -299v0v-639h107v639v0q-2 233 -76 356z" />
<glyph unicode="i" horiz-adv-x="499" d="M201 1186v-1188h102v1188h-102zM303 1487h-102v-103h102v103z" />
<glyph unicode="j" horiz-adv-x="532" d="M209 1487v-103h102v103h-102zM209 -88q-2 -352 -117 -451q-63 -57 -162 -63v-94q154 12 242 90q80 68 111 198q27 113 28 316v1278h-102q4 -223 0 -1274z" />
<glyph unicode="k" horiz-adv-x="1089" d="M449 674l522 512h-148l-510 -502v1200h-102v-1886h102v541l62 63q289 -285 530 -602h129q-266 359 -585 674z" />
<glyph unicode="l" horiz-adv-x="532" d="M203 -4h102v1886h-102v-1886z" />
<glyph unicode="m" horiz-adv-x="2134" d="M1905 1028q-84 160 -322 193q-35 6 -70 6q-174 0 -315 -125q-74 -63 -115 -141q-82 221 -350 260q-35 6 -69 6q-211 0 -365 -174v133h-102v-1186h102v856q31 88 100 150q133 117 273 116q213 0 289 -164q55 -119 59 -313v-647h106v643q0 74 -2 117q27 162 125 248 q133 117 273 116q213 0 288 -164q55 -119 60 -313v-647h106v643q1 248 -71 387z" />
<glyph unicode="n" horiz-adv-x="1378" d="M1153 995q-59 100 -135 148.5t-213 70.5q-35 4 -72 5q-129 0 -244.5 -68t-191.5 -178v211h-102v-1184h102v647q0 209 162 352q133 117 282 117q23 0 45 -4q111 -18 168.5 -55t104.5 -121q61 -102 61 -297v0v-639h107v639q0 229 -74 356z" />
<glyph unicode="o" d="M643 1208q-215 0 -380 -182t-165 -436q0 -287 149.5 -453t395.5 -166q256 0 400.5 164t144.5 455q0 254 -164 436t-381 182zM645 74q-199 0 -319.5 138t-120.5 378q0 211 133 363.5t307 152.5t307 -152.5t133 -363.5q0 -236 -122.5 -376t-317.5 -140z" />
<glyph unicode="p" horiz-adv-x="1292" d="M1190 666q-12 268 -191 426q-135 119 -348 118q-31 0 -61 -2q-72 0 -402 -28v-1882h103v692q197 -18 299 -19q240 0 389 131q182 160 209 443q2 16 2 45q2 29 1 41t-1 35zM1083 586q0 -25 -4 -56q-41 -244 -157 -346q-143 -125 -308 -114q-59 0 -323 20v455v0v16v57v15v0 v454q193 20 323 23q205 12 330 -104.5t141 -354.5q0 -16 -2 -65z" />
<glyph unicode="q" horiz-adv-x="1292" d="M721 1208q-233 14 -402 -131q-178 -158 -219 -413q-10 -59 -10 -119q0 -231 129 -402q141 -184 365 -184q184 0 327 125q68 61 111 123v-72v0v0v-837h102v1882q-239 26 -403 28zM1022 561q-2 -240 -164 -383q-133 -117 -280 -117q-190 0 -314 211q-66 113 -65 269 q0 125 43 245q49 133 135 209q143 125 321 115q59 0 324 -23v-526z" />
<glyph unicode="r" horiz-adv-x="688" d="M397 1077q-74 -66 -127 -155v262h-102v-1184h102v557q0 18 13 92q37 227 172 346q68 57 149 86v105q-119 -33 -207 -109z" />
<glyph unicode="s" horiz-adv-x="800" d="M385 672q-203 123 -203 225q0 18 6 45q33 164 205 164q31 0 68 -6q76 -12 114 -33q49 -23 113 -86l10 96q-119 123 -325 123q-246 0 -291 -229q-6 -33 -6 -62q0 -133 137 -245q129 -86 256 -172q137 -102 137 -209q0 -20 -4 -41q-37 -197 -221 -197q-162 0 -297 121 l-4 -113q80 -61 209 -86q45 -10 90 -10q125 0 211 63q94 66 119 189q8 45 8 82q0 96 -72 180t-260 201z" />
<glyph unicode="t" horiz-adv-x="702" d="M428 109q-57 51 -72 186q-4 39 -6 276q-4 256 0 510h264v103h-264v198h-102v-198h-172v-103h172q-4 -258 0 -516q4 -262 10 -319q18 -143 92 -207q45 -39 142 -49q35 -4 155 -4v88q-172 -4 -219 35z" />
<glyph unicode="u" horiz-adv-x="1249" d="M963 1182v-852q-33 -90 -103 -152q-131 -115 -270 -115q-211 0 -287 162q-55 119 -59 314v643h-107v-641q0 -246 72 -383q84 -158 321 -193q33 -4 68 -4q209 0 365 172v-133h100v1182h-100z" />
<glyph unicode="v" horiz-adv-x="1062" d="M485 0h107l416 1182h-109l-360 -1028l-373 1028h-109z" />
<glyph unicode="w" horiz-adv-x="1892" d="M1739 1182l-361 -1028l-372 1028h-2h-107l-362 -1028l-373 1028h-109l428 -1182h109l360 1030l375 -1030h107l415 1182h-108z" />
<glyph unicode="x" horiz-adv-x="1179" d="M1116 0l-463 596l455 586h-131l-387 -502l-391 502h-129l454 -586l-463 -596h129l400 512l397 -512h129z" />
<glyph unicode="y" horiz-adv-x="1073" d="M905 1182l-362 -1028l-373 1028h-109l428 -1182l-161 -463q-14 -41 -60 -86q-59 -59 -157 -72l4 -92q154 20 235 101q45 43 70 108v0h2q2 10 8 27l582 1659h-107z" />
<glyph unicode="z" horiz-adv-x="1050" d="M979 1182h-121v-2h-772v-101h705l-705 -1079h121v0h760v102h-693z" />
<glyph unicode="{" horiz-adv-x="1085" d="M958 1878v102h-329v0h-103q-182 -557 -223 -1153h-227v-102h225q-2 -27 0 -49q6 -188 31 -385q57 -475 194 -922v0v0h432v103h-358q-190 705 -197 1204q-8 500 195 1202h360z" />
<glyph unicode="|" horiz-adv-x="573" d="M346 -631h-102v2611h102v-2611z" />
<glyph unicode="}" horiz-adv-x="1085" d="M76 1878v102h330v0h102q180 -557 223 -1153h227v-102h-225v-49q-6 -188 -31 -385q-57 -475 -194 -922v0v0h-432v103h358q188 705 197 1204q6 500 -195 1202h-360z" />
<glyph unicode="&#xa1;" horiz-adv-x="536" d="M313 -2v1335h-102v-1335h102zM334 1513h-144v123h144v-123z" />
<glyph unicode="&#xa9;" horiz-adv-x="9033" d="M6701 1511q35 141 172 142q68 0 115 -40t47 -108q0 -78 -121 -202l-164 -170l70 2q199 6 219 0v-41h-344v39l194 204q96 100 97 168q0 49 -34 79t-83 30q-104 0 -115 -107q-26 2 -53 4zM7657 1366q0 -127 -59 -203q-66 -82 -190 -82q-123 0 -191 84q-61 78 -61 201 q0 111 71.5 199t180.5 88q106 0 177.5 -88t71.5 -199zM7610 1366q0 90 -57 165t-145 75t-146.5 -75t-58.5 -165q0 -102 51 -166q55 -72 154 -72q98 0 153 72q49 66 49 166zM8268 1366q0 -127 -62 -203q-66 -82 -190 -82q-121 0 -189 84q-63 78 -63 201q0 111 71.5 199 t180.5 88t180.5 -88t71.5 -199zM8221 1366q0 90 -56 162q-61 78 -149 78q-86 0 -144.5 -75t-58.5 -165q0 -102 49 -166q55 -72 154 -72q98 0 153 72q52 66 52 166zM8772 1141h-80v-160h-45v160h-289v51l260 448h74v-462h80v-37zM8647 1606h-2q-6 -14 -11 -25l-237 -401h248 v385q0 12 2 41zM3398 764h-197v-709h-47v709h-197v49h441v-49zM3860 602v-547h-47v62q-72 -78 -168 -78q-133 0 -180 90q-33 63 -33 176v297h50v-297q0 -219 159 -219q53 0 103.5 35t68.5 88v393h47zM4493 307q-12 -121 -83.5 -192.5t-192.5 -71.5q-47 0 -137 8v-319h-47 v870q141 12 184 12h13h16q111 0 177 -69.5t70 -179.5q0 -6 2 -17q0 -14 -2 -41zM4446 356q-14 221 -217 213q-86 -4 -149 -10v-461q82 -6 149 -10q178 -8 215 213q4 28 2 55zM5738 813l-215 -756h-51l-188 664l-187 -664h-51l-215 756h51l189 -666l188 666h51l189 -666 l188 666h51zM6261 598v-541h-47v95q-20 -29 -52 -58q-68 -57 -151 -57q-102 0 -168 84q-59 78 -59 184q0 154 106 246q76 66 184 61q56 -4 187 -14zM6214 557q-70 4 -150 8q-104 6 -172 -78q-59 -76 -59 -182q0 -74 30 -125q57 -96 144 -96q90 0 147.5 69.5t59.5 159.5v244z M6892 350v-295h-50v295q0 145 -75 195q-43 27 -99 26q-84 0 -144.5 -66.5t-60.5 -150.5v-299h-47v547h47v-96q78 113 201 112q78 0 131 -34q97 -62 97 -234zM7475 922v-867h-47v97q-20 -31 -51 -58q-66 -57 -152 -57q-102 0 -168 84q-59 78 -59 184q0 135 80 220t211 85 q49 0 139 -8v320h47zM7428 557q-66 4 -149 8q-104 6 -170 -78q-59 -76 -60 -184q0 -70 31 -123q55 -96 143 -96t146.5 69.5t58.5 159.5v244zM7631 330v-6q0 -8 4 -25q35 -209 213 -211q61 -2 104 8q18 4 78 21v-45q-94 -29 -172 -29q-119 -2 -189.5 69.5t-84.5 194.5v21v10 v13v9q10 117 98 193q68 59 150 59q115 0 182 -104q49 -80 45 -178h-428zM7633 377h375q-4 51 -29 90q-57 98 -143 98q-76 0 -133.5 -56t-69.5 -132zM8382 604v-49q-123 -43 -147 -199q-6 -35 -6 -43v-258h-47v549h47v-123q55 94 153 123zM8753 190q0 -70 -43 -111.5 t-112 -41.5q-80 0 -138 43l2 53q61 -55 138 -55q104 0 104 108q0 51 -63 97q-14 10 -119 79q-63 51 -64 113q0 14 2 29q20 106 135 106q96 0 150 -57l-4 -43q-45 45 -105 53q-18 4 -30 4q-80 0 -97 -75q-2 -14 -2 -21q0 -47 95 -104q151 -95 151 -177zM893 1094l-289 886 h354l138 -448q4 12 135 448h375l145 -448q4 18 127 448h350l-289 -886h-399l-125 379l-123 -379h-399zM1630 -100l-24 77v-221l24 19v125zM1683 520l-26 19v-406l26 -18v405zM1708 567l27 -80v459l-27 -18v-361zM1503 -319l25 18v934l-25 18v-970zM1579 596l-25 18v-897 l25 21v858zM1657 727l26 -80v262l-26 -18v-164zM1630 557l-24 21v-517l24 80v416zM1915 -20l24 18v1096h-2l-22 -17v-1097zM1735 483l-27 19v-408l27 -18v407zM1065 969l-27 20v-960l27 20v920zM1116 498l-18 -15l18 60v389l-26 18v-882l26 20v410zM987 -10l27 20v998 l-27 18v-1036zM1630 870l-16 -10l16 -51v61zM1786 983l-27 -18v-910l27 -18v946zM1837 1020l-27 -19v-985l27 -18v1022zM2042 1018l-25 18v-981l25 19v944zM2146 313l-26 78v-262l26 18v166zM2120 963v-396l26 -20v395zM2249 868l-27 19v-402l27 -20v403zM2095 471l-27 80 v-459l27 19v360zM2198 905l-27 19v-398l27 -20v399zM2095 981l-27 18v-391q6 -4 27 -20v393zM1167 895l-24 18v-290l24 79v193zM1966 16l25 21v1018l-25 18v-1057zM2660 567l-24 21v-84l24 18v45zM2507 680l-27 18v-307l27 19v270zM2558 643l-27 19v-234l27 18v197z M2300 829l-25 21v-406l25 -20v405zM2609 606l-26 19v-160l26 18v123zM2351 793l-24 18v-408l24 -20v410zM2402 756l-24 18v-409l24 -21v412zM2456 719l-27 18v-383l27 19v346zM756 526l-27 -80v-331l27 -19v430zM1167 535l-24 -19v-410l24 21v408zM446 768l-24 -18v-410v-2 l24 18v412zM395 731l-26 -18v-336l26 -19v373zM188 582l-24 -21v-35l24 -18v74zM344 692l-27 -18v-260l27 -19v297zM1167 -199v-2v-2v4zM242 618l-27 -18v-111l27 -18v147zM293 655l-27 -18v-184l27 -21v223zM963 1044l-27 19v-1098l10 -6l17 12v1073zM2171 166l18 14 l-18 53v-67zM2687 541l6 4l-6 4v-8zM1888 1059l-26 -19v-1063l24 -18l2 2v1098zM1425 709l-8 4v0l-4 2l-14 -13v-1073l16 -10l10 6v1084zM1374 684l-26 -18v-1000l26 -18v1036zM1477 670l-27 20v-1046l27 18v1008zM1657 -207l8 6l-8 25v-31zM653 209l-10 -31l10 -6v37z M1323 647l-27 -18v-924l27 -18v960zM1194 784l23 74l-23 19v-93zM549 844l-25 -21v-405l25 20v406zM885 4l24 -18v1095l-16 13l-8 -7v-1083zM1270 610l-25 -20v-848l25 -18v886zM1219 86v485l-25 -18v-406l4 3zM1219 -240v193l-25 -76v-98zM756 993l-27 -18v-395l27 20v393z M858 1067l-24 -18v-1008l24 -18v1044zM473 377l25 20v408l-25 -19v-409zM807 1030l-25 -18v-389q4 2 6 4q-2 -8 -6 -21v-528l25 -19v971zM705 133v236l-27 -80v-135zM602 881l-27 -19v-403l27 20v402zM653 918l-26 -19v-399l26 18v400zM705 956l-27 -20v-397l27 20v397z" />
<glyph unicode="&#xad;" horiz-adv-x="772" d="M659 596h-536v100h536v-100z" />
<glyph unicode="&#xb0;" horiz-adv-x="704" d="M352 1628q-88 0 -150.5 -62.5t-62.5 -150.5t62.5 -150.5t150.5 -62.5t150.5 62.5t62.5 150.5t-62.5 150.5t-150.5 62.5zM352 1290q-51 0 -88 36t-37 89q0 51 37 87t88 36t88 -36t37 -87q0 -53 -37 -89t-88 -36z" />
<glyph unicode="&#xb1;" horiz-adv-x="940" d="M827 596h-721v100h721v-100zM518 1008v-721h-102v721h102zM721 -2h-537v100h537v-100z" />
<glyph unicode="&#xd2;" />
<glyph unicode="&#xd3;" />
<glyph unicode="&#xd6;" />
<glyph unicode="&#xd7;" horiz-adv-x="940" d="M758 864l-510 -508l-72 72l510 508zM248 936l510 -508l-72 -72l-510 508z" />
<glyph unicode="&#xe0;" horiz-adv-x="1310" d="M748 1202q-233 16 -400 -129q-178 -158 -219 -411q-10 -59 -10 -121q0 -227 129 -398q141 -184 362 -184q182 0 326 125q68 59 111 123v-72v0v0v-135h102v1176q-239 24 -401 26zM1047 559q-2 -240 -164 -381q-131 -117 -281 -117q-188 0 -311 209q-66 113 -66 267 q0 127 45 247q49 131 133 207q143 125 322 113q57 0 322 -21v-524zM485 1509l330 -163l45 88l-330 163z" />
<glyph unicode="&#xe1;" horiz-adv-x="1310" d="M748 1202q-233 16 -400 -129q-178 -158 -219 -411q-10 -59 -10 -121q0 -227 129 -398q141 -184 362 -184q182 0 326 125q68 59 111 123v-72v0v0v-135h102v1176q-239 24 -401 26zM1047 559q-2 -240 -164 -381q-131 -117 -281 -117q-188 0 -311 209q-66 113 -66 267 q0 127 45 247q49 131 133 207q143 125 322 113q57 0 322 -21v-524zM928 1509l-330 -163l-45 88l330 163z" />
<glyph unicode="&#xe2;" horiz-adv-x="1310" d="M748 1202q-233 16 -400 -129q-178 -158 -219 -411q-10 -59 -10 -121q0 -227 129 -398q141 -184 362 -184q182 0 326 125q68 59 111 123v-72v0v0v-135h102v1176q-239 24 -401 26zM1047 559q-2 -240 -164 -381q-131 -117 -281 -117q-188 0 -311 209q-66 113 -66 267 q0 127 45 247q49 131 133 207q143 125 322 113q57 0 322 -21v-524zM967 1438l-289 192v0v0l-287 -192l55 -84l232 155l233 -155z" />
<glyph unicode="&#xe4;" horiz-adv-x="1310" d="M748 1202q-233 16 -400 -129q-178 -158 -219 -411q-10 -59 -10 -121q0 -227 129 -398q141 -184 362 -184q182 0 326 125q68 59 111 123v-72v0v0v-135h102v1176q-239 24 -401 26zM1047 559q-2 -240 -164 -381q-131 -117 -281 -117q-188 0 -311 209q-66 113 -66 267 q0 127 45 247q49 131 133 207q143 125 322 113q57 0 322 -21v-524zM508 1466h-102v-102h102v102zM958 1466h-102v-102h102v102z" />
<glyph unicode="&#xe8;" horiz-adv-x="1212" d="M1110 592q8 215 -98 385q-119 188 -320 221q-37 6 -71 6q-182 0 -326 -127q-190 -166 -211 -420q-2 -12 -2 -26v-45v-43q35 -289 209 -443q152 -133 387 -131q51 2 106 8q135 16 267 56q0 -6 0 24.5v75.5q-133 -37 -170 -45q-100 -27 -226 -20q-176 0 -307 114 q-117 102 -155 344q-6 31 -7 56v10h924zM627 1100q190 0 311 -209q51 -84 63 -197h-811q27 176 158.5 291t278.5 115zM295 1509l330 -163l45 88l-330 163z" />
<glyph unicode="&#xe9;" horiz-adv-x="1212" d="M1110 592q8 215 -98 385q-119 188 -320 221q-37 6 -71 6q-182 0 -326 -127q-190 -166 -211 -420q-2 -12 -2 -26v-45v-43q35 -289 209 -443q152 -133 387 -131q51 2 106 8q135 16 267 56q0 -6 0 24.5v75.5q-133 -37 -170 -45q-100 -27 -226 -20q-176 0 -307 114 q-117 102 -155 344q-6 31 -7 56v10h924zM627 1100q190 0 311 -209q51 -84 63 -197h-811q27 176 158.5 291t278.5 115zM874 1509l-329 -163l-45 88l329 163z" />
<glyph unicode="&#xea;" horiz-adv-x="1212" d="M1110 592q8 215 -98 385q-119 188 -320 221q-37 6 -71 6q-182 0 -326 -127q-190 -166 -211 -420q-2 -12 -2 -26v-45v-43q35 -289 209 -443q152 -133 387 -131q51 2 106 8q135 16 267 56q0 -6 0 24.5v75.5q-133 -37 -170 -45q-100 -27 -226 -20q-176 0 -307 114 q-117 102 -155 344q-6 31 -7 56v10h924zM627 1100q190 0 311 -209q51 -84 63 -197h-811q27 176 158.5 291t278.5 115zM885 1438l-289 192v0v0l-287 -192l56 -84l231 155l233 -155z" />
<glyph unicode="&#xeb;" horiz-adv-x="1212" d="M1110 592q8 215 -98 385q-119 188 -320 221q-37 6 -71 6q-182 0 -326 -127q-190 -166 -211 -420q-2 -12 -2 -26v-45v-43q35 -289 209 -443q152 -133 387 -131q51 2 106 8q135 16 267 56q0 -6 0 24.5v75.5q-133 -37 -170 -45q-100 -27 -226 -20q-176 0 -307 114 q-117 102 -155 344q-6 31 -7 56v10h924zM627 1100q190 0 311 -209q51 -84 63 -197h-811q27 176 158.5 291t278.5 115zM406 1487h-103v-103h103v103zM856 1487h-102v-103h102v103z" />
<glyph unicode="&#xec;" horiz-adv-x="499" d="M201 1186v-1188h102v1188h-102zM78 1509l330 -163l45 88l-330 163z" />
<glyph unicode="&#xed;" horiz-adv-x="499" d="M201 1186v-1188h102v1188h-102zM430 1509l-330 -163l-45 88l330 163z" />
<glyph unicode="&#xee;" horiz-adv-x="499" d="M201 1186v-1188h102v1188h-102zM537 1438l-289 192v0v0l-287 -192l55 -84l232 155l233 -155z" />
<glyph unicode="&#xef;" horiz-adv-x="499" d="M201 1186v-1188h102v1188h-102zM180 1487h-102v-103h102v103zM426 1487h-102v-103h102v103z" />
<glyph unicode="&#xf2;" d="M643 1208q-215 0 -380 -182t-165 -436q0 -287 149.5 -453t395.5 -166q256 0 400.5 164t144.5 455q0 254 -164 436t-381 182zM645 74q-199 0 -319.5 138t-120.5 378q0 211 133 363.5t307 152.5t307 -152.5t133 -363.5q0 -236 -122.5 -376t-317.5 -140zM451 1509l329 -163 l45 88l-329 163z" />
<glyph unicode="&#xf3;" d="M643 1208q-215 0 -380 -182t-165 -436q0 -287 149.5 -453t395.5 -166q256 0 400.5 164t144.5 455q0 254 -164 436t-381 182zM645 74q-199 0 -319.5 138t-120.5 378q0 211 133 363.5t307 152.5t307 -152.5t133 -363.5q0 -236 -122.5 -376t-317.5 -140zM928 1509l-330 -163 l-45 88l330 163z" />
<glyph unicode="&#xf4;" d="M643 1208q-215 0 -380 -182t-165 -436q0 -287 149.5 -453t395.5 -166q256 0 400.5 164t144.5 455q0 254 -164 436t-381 182zM645 74q-199 0 -319.5 138t-120.5 378q0 211 133 363.5t307 152.5t307 -152.5t133 -363.5q0 -236 -122.5 -376t-317.5 -140zM905 1438l-289 192 v0v0l-286 -192l55 -84l231 155l234 -155z" />
<glyph unicode="&#xf6;" d="M643 1208q-215 0 -380 -182t-165 -436q0 -287 149.5 -453t395.5 -166q256 0 400.5 164t144.5 455q0 254 -164 436t-381 182zM645 74q-199 0 -319.5 138t-120.5 378q0 211 133 363.5t307 152.5t307 -152.5t133 -363.5q0 -236 -122.5 -376t-317.5 -140zM451 1466h-103v-102 h103v102zM901 1466h-102v-102h102v102z" />
<glyph unicode="&#xf9;" horiz-adv-x="1249" d="M963 1182v-852q-33 -90 -103 -152q-131 -115 -270 -115q-211 0 -287 162q-55 119 -59 314v643h-107v-641q0 -246 72 -383q84 -158 321 -193q33 -4 68 -4q209 0 365 172v-133h100v1182h-100zM389 1509l330 -163l45 88l-330 163z" />
<glyph unicode="&#xfa;" horiz-adv-x="1249" d="M963 1182v-852q-33 -90 -103 -152q-131 -115 -270 -115q-211 0 -287 162q-55 119 -59 314v643h-107v-641q0 -246 72 -383q84 -158 321 -193q33 -4 68 -4q209 0 365 172v-133h100v1182h-100zM825 1509l-329 -163l-45 88l329 163z" />
<glyph unicode="&#xfb;" horiz-adv-x="1249" d="M963 1182v-852q-33 -90 -103 -152q-131 -115 -270 -115q-211 0 -287 162q-55 119 -59 314v643h-107v-641q0 -246 72 -383q84 -158 321 -193q33 -4 68 -4q209 0 365 172v-133h100v1182h-100zM885 1438l-289 192v0v0l-287 -192l56 -84l231 155l233 -155z" />
<glyph unicode="&#xfc;" horiz-adv-x="1249" d="M963 1182v-852q-33 -90 -103 -152q-131 -115 -270 -115q-211 0 -287 162q-55 119 -59 314v643h-107v-641q0 -246 72 -383q84 -158 321 -193q33 -4 68 -4q209 0 365 172v-133h100v1182h-100zM410 1466h-103v-102h103v102zM860 1466h-102v-102h102v102z" />
<glyph unicode="&#x2000;" horiz-adv-x="990" />
<glyph unicode="&#x2001;" horiz-adv-x="1980" />
<glyph unicode="&#x2002;" horiz-adv-x="990" />
<glyph unicode="&#x2003;" horiz-adv-x="1980" />
<glyph unicode="&#x2004;" horiz-adv-x="660" />
<glyph unicode="&#x2005;" horiz-adv-x="495" />
<glyph unicode="&#x2006;" horiz-adv-x="330" />
<glyph unicode="&#x2007;" horiz-adv-x="330" />
<glyph unicode="&#x2008;" horiz-adv-x="247" />
<glyph unicode="&#x2009;" horiz-adv-x="396" />
<glyph unicode="&#x200a;" horiz-adv-x="110" />
<glyph unicode="&#x2010;" horiz-adv-x="772" d="M659 596h-536v100h536v-100z" />
<glyph unicode="&#x2011;" horiz-adv-x="772" d="M659 596h-536v100h536v-100z" />
<glyph unicode="&#x2012;" horiz-adv-x="772" d="M659 596h-536v100h536v-100z" />
<glyph unicode="&#x2013;" horiz-adv-x="1260" d="M1147 596h-1024v100h1024v-100z" />
<glyph unicode="&#x2014;" horiz-adv-x="2284" d="M2171 596h-2048v100h2048v-100z" />
<glyph unicode="&#x202f;" horiz-adv-x="396" />
<glyph unicode="&#x205f;" horiz-adv-x="495" />
<glyph unicode="&#x20ac;" horiz-adv-x="1431" d="M1008 1556q109 0 317 -20v102q-193 16 -295 17q-285 0 -434 -111q-129 -94 -188 -201q-80 -141 -103 -368h-213v-103h205l-2 -65v-33t2 -37h2q2 -18 2 -41h-209v-102h219q23 -182 82 -295q66 -127 203 -227q152 -113 434 -113q102 0 295 18v105q-207 -20 -317 -21 q-348 0 -500 267q-59 102 -86 266h668v102h-680q-2 18 -4 60q-2 16 -3 53q0 43 3 49v14h684v103h-674q25 197 92 315q150 266 500 266z" />
<glyph unicode="&#x25fc;" horiz-adv-x="1177" d="M0 1178h1178v-1178h-1178v1178z" />
</font>
</defs>
</svg>
